<svg xmlns="http://www.w3.org/2000/svg" viewBox="0 0 1200 900"><defs><linearGradient id="g" x2="1" y2="1"><stop stop-color="#201622"/><stop offset=".6" stop-color="#9b557e"/><stop offset="1" stop-color="#201622"/></linearGradient></defs><rect width="1200" height="900" fill="url(#g)"/><circle cx="600" cy="450" r="230" fill="#f1b5d5" opacity=".12"/><g stroke="#f1b5d5" stroke-width="9" stroke-linecap="round"><path d="M150 450v-103M168 450v67"/><path d="M200 450v-140M218 450v91"/><path d="M250 450v-177M268 450v115"/><path d="M300 450v-214M318 450v139"/><path d="M350 450v-61M368 450v40"/><path d="M400 450v-98M418 450v64"/><path d="M450 450v-135M468 450v88"/><path d="M500 450v-172M518 450v112"/><path d="M550 450v-209M568 450v136"/><path d="M600 450v-56M618 450v36"/><path d="M650 450v-93M668 450v60"/><path d="M700 450v-130M718 450v85"/><path d="M750 450v-167M768 450v109"/><path d="M800 450v-204M818 450v133"/><path d="M850 450v-51M868 450v33"/><path d="M900 450v-88M918 450v57"/><path d="M950 450v-125M968 450v81"/><path d="M1000 450v-162M1018 450v105"/><path d="M1050 450v-199M1068 450v129"/></g><text x="70" y="105" fill="#fff" font-family="Arial" font-size="52" font-weight="700">VOICE TEXTURE</text><text x="72" y="820" fill="#f1b5d5" font-family="Arial" font-size="24">SANGGAR CREATOR DEMO · AUDIO · 03</text></svg>