<svg xmlns="http://www.w3.org/2000/svg" viewBox="0 0 1200 900"><defs><linearGradient id="g" x2="1" y2="1"><stop stop-color="#171827"/><stop offset=".6" stop-color="#7657a9"/><stop offset="1" stop-color="#171827"/></linearGradient></defs><rect width="1200" height="900" fill="url(#g)"/><circle cx="600" cy="450" r="230" fill="#ddd3ff" opacity=".12"/><g stroke="#ddd3ff" stroke-width="9" stroke-linecap="round"><path d="M150 450v-45M168 450v29"/><path d="M200 450v-82M218 450v53"/><path d="M250 450v-119M268 450v77"/><path d="M300 450v-156M318 450v101"/><path d="M350 450v-193M368 450v125"/><path d="M400 450v-230M418 450v150"/><path d="M450 450v-77M468 450v50"/><path d="M500 450v-114M518 450v74"/><path d="M550 450v-151M568 450v98"/><path d="M600 450v-188M618 450v122"/><path d="M650 450v-225M668 450v146"/><path d="M700 450v-72M718 450v47"/><path d="M750 450v-109M768 450v71"/><path d="M800 450v-146M818 450v95"/><path d="M850 450v-183M868 450v119"/><path d="M900 450v-220M918 450v143"/><path d="M950 450v-67M968 450v44"/><path d="M1000 450v-104M1018 450v68"/><path d="M1050 450v-141M1068 450v92"/></g><text x="70" y="105" fill="#fff" font-family="Arial" font-size="52" font-weight="700">AMBIENT FIELD</text><text x="72" y="820" fill="#ddd3ff" font-family="Arial" font-size="24">SANGGAR CREATOR DEMO · AUDIO · 01</text></svg>